<?xml version="1.0" standalone="no"?>
<!DOCTYPE svg PUBLIC "-//W3C//DTD SVG 20010904//EN"
 "http://www.w3.org/TR/2001/REC-SVG-20010904/DTD/svg10.dtd">
<svg version="1.0" xmlns="http://www.w3.org/2000/svg"
 width="144.000000pt" height="144.000000pt" viewBox="0 0 144.000000 144.000000"
 preserveAspectRatio="xMidYMid meet">
<metadata>
Created by potrace 1.11, written by Peter Selinger 2001-2013
</metadata>
<g transform="translate(0.000000,144.000000) scale(0.100000,-0.100000)"
fill="#000000" stroke="none">
<path d="M720 1374 c-94 -24 -212 -45 -300 -53 -47 -4 -124 -20 -173 -36 -74
-24 -94 -36 -132 -76 -57 -61 -89 -152 -75 -214 5 -22 10 -68 10 -101 0 -34 7
-81 15 -105 10 -27 14 -58 10 -80 -9 -50 12 -222 41 -348 20 -85 32 -114 63
-155 21 -28 50 -69 64 -90 21 -32 38 -43 94 -63 66 -23 71 -24 203 -12 74 6
161 20 192 30 32 11 80 19 108 19 28 0 81 7 118 15 37 8 103 19 147 25 95 14
159 47 226 117 26 26 52 65 58 85 20 60 15 262 -8 382 -12 59 -21 124 -21 144
0 20 -9 84 -20 142 -11 58 -20 120 -20 139 0 49 -53 135 -106 171 -103 71
-135 80 -294 79 -90 0 -166 -6 -200 -15z m386 -101 c91 -43 122 -87 135 -193
4 -36 14 -110 22 -165 27 -179 29 -215 13 -215 -10 0 -16 13 -18 37 -3 39 -19
53 -79 68 -23 6 -26 4 -23 -17 12 -85 12 -108 -1 -108 -16 0 -18 8 -50 245
-14 105 -28 198 -31 208 -5 17 -13 18 -86 12 -92 -8 -98 -5 -98 63 0 52 -10
57 -88 46 l-57 -9 3 -35 c1 -19 5 -50 8 -67 4 -30 2 -33 -20 -33 -50 0 -57 -9
-51 -59 12 -89 11 -88 52 -87 35 1 38 -2 41 -28 3 -26 1 -28 -20 -23 -22 6
-26 1 -46 -53 l-21 -60 39 -20 c46 -23 51 -51 25 -118 -15 -36 -19 -39 -78
-51 -119 -25 -117 -24 -117 -7 0 16 13 20 84 30 21 3 40 7 43 9 2 3 0 26 -5
53 -9 54 -3 51 -94 39 -43 -6 -48 -5 -48 13 0 16 9 21 53 26 68 9 94 27 103
72 8 43 2 50 -53 59 -39 6 -43 5 -43 -14 0 -12 -6 -21 -15 -21 -9 0 -15 9 -15
24 0 20 7 24 53 32 52 9 52 9 49 44 -5 60 -12 72 -35 67 -12 -3 -48 -9 -80
-13 -54 -6 -59 -5 -55 12 2 15 16 21 67 27 58 8 62 11 57 30 -3 12 -6 35 -6
51 l0 29 -69 -7 c-63 -5 -69 -4 -74 14 -4 16 -13 20 -49 19 -69 -2 -93 -12
-90 -37 3 -22 5 -22 -88 -39 l-45 -8 4 -45 c1 -25 5 -48 7 -51 2 -4 23 -3 46
2 72 14 100 11 96 -8 -2 -13 -21 -20 -80 -28 -42 -6 -80 -13 -83 -17 -4 -3 -3
-27 1 -53 l7 -47 48 5 c36 5 49 3 49 -7 0 -17 -39 -52 -76 -68 l-32 -13 37
-42 37 -41 40 18 c55 25 95 71 109 127 7 26 18 48 25 48 7 0 18 -21 25 -47 6
-26 17 -53 24 -61 10 -12 3 -16 -44 -22 -51 -6 -55 -8 -49 -30 6 -25 2 -27
-99 -41 l-49 -7 7 -46 c4 -25 10 -49 13 -53 4 -4 36 -3 71 2 71 10 81 7 81
-19 0 -14 -15 -20 -67 -30 -38 -7 -76 -15 -85 -18 -21 -5 -23 -31 -7 -87 10
-37 12 -38 47 -33 31 5 233 53 345 82 26 7 27 6 27 -33 0 -44 -2 -45 -72 -58
-21 -3 -38 -9 -38 -13 0 -10 43 -186 46 -190 3 -3 95 19 141 34 8 3 6 24 -7
76 -11 40 -18 74 -17 75 1 1 14 4 29 8 24 5 30 2 46 -31 11 -21 25 -56 32 -78
7 -22 14 -43 17 -47 3 -6 139 37 151 47 2 2 -8 31 -22 66 -14 34 -25 63 -23
64 1 1 14 5 28 8 24 6 32 -1 85 -71 32 -42 61 -80 64 -85 3 -4 30 4 59 19 59
28 77 27 34 -4 -53 -37 -89 -51 -154 -57 -35 -4 -91 -13 -124 -21 -33 -8 -86
-14 -117 -14 -32 0 -81 -9 -110 -19 -29 -11 -109 -25 -178 -32 -113 -11 -131
-10 -177 5 -28 9 -54 24 -57 32 -7 17 -4 17 64 -1 30 -8 55 -13 56 -12 1 1 15
27 32 57 37 68 67 159 56 170 -5 4 -41 10 -80 13 l-72 6 -26 -72 c-15 -40 -34
-82 -44 -95 l-18 -23 -32 46 c-22 31 -39 74 -52 128 -25 108 -44 279 -36 333
3 28 0 55 -9 78 -8 19 -15 61 -15 93 -1 32 -5 78 -9 102 -12 59 5 111 51 159
28 30 52 43 111 60 42 12 92 22 113 22 47 0 197 26 294 51 90 22 124 25 255
20 79 -3 111 -9 151 -28z m-136 -425 c0 -31 -3 -33 -31 -18 -16 9 -19 22 -19
85 0 96 20 108 37 21 7 -34 12 -73 13 -88z m18 -189 c-18 -11 -21 -4 -13 28
l7 28 9 -24 c7 -17 6 -27 -3 -32z m-62 -7 c-22 -5 -30 3 -21 18 5 8 11 7 22
-2 15 -12 14 -13 -1 -16z m84 -32 c0 -5 16 -10 35 -10 l35 0 -4 -52 c-3 -29
-5 -56 -6 -60 0 -5 -8 -8 -18 -8 -10 0 -29 -11 -42 -25 -18 -20 -26 -22 -42
-14 -19 10 -19 11 4 27 34 23 39 34 20 48 -12 9 -21 9 -29 2 -7 -6 -20 -7 -29
-4 -13 5 -12 10 9 36 14 16 28 39 32 50 6 20 35 28 35 10z m174 -5 c15 -12 17
-18 8 -27 -14 -14 -62 8 -62 29 0 17 30 16 54 -2z m100 -11 c8 -21 -6 -44 -54
-87 -42 -39 -70 -46 -89 -23 -9 11 -6 15 14 20 31 8 92 61 100 87 8 23 21 25
29 3z m-393 -6 c-1 -5 -1 -19 -1 -32 0 -19 -6 -25 -27 -28 -27 -3 -28 -5 -28
-58 0 -45 -3 -55 -19 -58 -26 -5 -46 16 -25 28 11 6 14 19 11 46 -4 35 -6 36
-38 31 -44 -7 -47 18 -4 28 17 4 30 13 30 21 0 16 26 19 35 4 10 -15 28 -12
22 4 -6 15 9 26 31 23 7 -1 13 -5 13 -9z m6 -97 c10 -15 9 -22 -1 -30 -10 -9
-17 -6 -30 13 -20 32 -20 36 2 36 9 0 23 -9 29 -19z m-114 3 c12 -12 -22 -64
-39 -57 -8 3 -12 11 -9 17 3 6 8 19 11 29 6 17 25 23 37 11z m531 -91 c-13
-87 -15 -88 -62 -28 -23 30 -42 57 -42 59 0 4 26 8 93 14 16 2 17 -3 11 -45z"/>
<path d="M1013 573 c-31 -6 -29 -23 2 -23 16 0 25 6 25 15 0 8 -1 14 -2 14 -2
-1 -13 -4 -25 -6z"/>
</g>
</svg>
